<svg width="138" height="26" viewBox="0 0 138 26" fill="none" xmlns="http://www.w3.org/2000/svg">
<path d="M46.0472 13.1368H53.7781L51.5536 23.6003C50.3269 24.0214 49.1872 24.3051 48.1344 24.4516C47.0908 24.6072 45.9831 24.685 44.8113 24.685C42.4404 24.685 40.6095 24.0122 39.3188 22.6665C38.028 21.3208 37.3826 19.3893 37.3826 16.8718C37.3826 14.4184 37.8724 12.2031 38.8519 10.2257C39.8314 8.23918 41.2091 6.71043 42.9851 5.63936C44.761 4.55915 46.8116 4.01904 49.1368 4.01904C51.1325 4.01904 53.0091 4.47218 54.7668 5.37846L53.1876 8.82507C52.5102 8.45893 51.8328 8.16598 51.1554 7.94626C50.478 7.72656 49.7411 7.61671 48.9446 7.61671C47.5439 7.61671 46.2898 7.99661 45.1821 8.75644C44.0836 9.51624 43.2185 10.601 42.5869 12.0108C41.9643 13.4114 41.6532 14.9219 41.6532 16.5423C41.6532 18.1167 41.9827 19.2748 42.6418 20.0163C43.31 20.7486 44.3308 21.1149 45.7039 21.1149C46.3997 21.1149 47.1778 21.0049 48.0383 20.7853L48.9446 16.6795H45.2783L46.0472 13.1368Z" fill="#DBDBDB"/>
<path d="M59.7513 24.4102H55.6182L60.1496 3.04395H64.2827L59.7513 24.4102Z" fill="#DBDBDB"/>
<path d="M74.5127 14.853C74.5127 13.0497 73.8582 12.148 72.5491 12.148C71.8625 12.148 71.2446 12.4271 70.6953 12.9856C70.1553 13.544 69.7113 14.3633 69.3634 15.4435C69.0247 16.5238 68.8553 17.636 68.8553 18.7803C68.8553 20.4738 69.5419 21.3206 70.9151 21.3206C71.6016 21.3206 72.2196 21.0414 72.7688 20.483C73.3181 19.9155 73.7437 19.1328 74.0458 18.1349C74.3571 17.1279 74.5127 16.0339 74.5127 14.853ZM78.6734 14.853C78.6734 16.7846 78.3484 18.4965 77.6985 19.9887C77.0576 21.4808 76.1284 22.6389 74.911 23.4627C73.6934 24.2775 72.247 24.6848 70.5718 24.6848C68.7867 24.6848 67.3586 24.1494 66.2875 23.0783C65.2256 21.9981 64.6947 20.5654 64.6947 18.7803C64.6947 16.8304 65.0196 15.0957 65.6696 13.5761C66.3287 12.0472 67.2762 10.8663 68.5121 10.0333C69.7478 9.19112 71.1943 8.77002 72.8512 8.77002C74.6455 8.77002 76.0644 9.31007 77.108 10.3903C78.1515 11.4705 78.6734 12.9581 78.6734 14.853Z" fill="#DBDBDB"/>
<path d="M91.6637 12.6013C91.0962 14.2308 90.5328 15.6909 89.9742 16.9817L86.7753 24.4105H82.3257L81.6255 9.05859H85.484L85.5393 15.8557L85.484 18.1489L85.3879 20.497H85.4433C85.4978 20.3139 85.5621 20.1263 85.6354 19.934C85.7087 19.7326 85.9424 19.1055 86.3356 18.0528C86.7289 17 86.9397 16.4553 86.9674 16.4188L90.1395 9.05859H94.6428V16.4188C94.6428 17.7186 94.5972 19.0781 94.5061 20.497H94.5883L94.9726 19.3985C95.641 17.4944 96.0758 16.3135 96.2769 15.8557L99.2846 9.05859H103.5L96.2224 24.4105H91.6906L91.6083 17.2701C91.6083 15.8512 91.6539 14.2949 91.7459 12.6013H91.6637Z" fill="#DBDBDB"/>
<path d="M121.763 4.33496L119.003 17.325C118.481 19.76 117.483 21.5955 116.01 22.8314C114.535 24.0672 112.618 24.6851 110.256 24.6851C108.316 24.6851 106.787 24.1679 105.669 23.1334C104.562 22.0899 104.009 20.6801 104.009 18.9042C104.009 18.245 104.077 17.6133 104.214 17.0092L106.905 4.33496H111.094L108.43 16.9543C108.274 17.6317 108.196 18.2038 108.196 18.6707C108.196 20.3002 109.061 21.115 110.792 21.115C111.918 21.115 112.81 20.767 113.469 20.0713C114.128 19.3665 114.604 18.3183 114.898 16.9268L117.561 4.33496H121.763Z" fill="#DBDBDB"/>
<path d="M128.684 13.7823H129.453C130.752 13.7823 131.773 13.4665 132.515 12.8348C133.266 12.2032 133.641 11.3563 133.641 10.2945C133.641 8.64669 132.748 7.82278 130.963 7.82278H129.947L128.684 13.7823ZM137.856 10.1846C137.856 12.3908 137.079 14.1256 135.522 15.3889C133.975 16.643 131.838 17.2701 129.109 17.2701H127.929L126.432 24.4105H122.243L126.487 4.33496H131.128C133.343 4.33496 135.019 4.82472 136.154 5.80423C137.289 6.7746 137.856 8.23471 137.856 10.1846Z" fill="#DBDBDB"/>
<path d="M22.0118 8.11218H13.4305L16.5983 1.53118C16.8958 0.760517 16.0406 0 14.8731 0H4.16504C3.2727 0 2.51421 0.45124 2.39523 1.05459L0.0156588 13.2229C-0.125628 13.9529 0.707222 14.6019 1.78546 14.6019H10.6122L7.18412 24.4633C6.91642 25.2339 7.77902 25.959 8.91674 25.959C9.54139 25.959 10.1362 25.7359 10.4635 25.3505L23.5511 9.93741C24.2427 9.13128 23.3875 8.11218 22.0118 8.11218Z" fill="#DBDBDB"/>
</svg>
