<svg width="145" height="42" viewBox="0 0 145 42" fill="none" xmlns="http://www.w3.org/2000/svg">
<path d="M65.2629 29.2038H62.0412V22.3064C62.0412 21.4542 61.8969 20.8169 61.6082 20.3945C61.3265 19.9649 60.8794 19.7501 60.2667 19.7501C59.4428 19.7501 58.8443 20.0529 58.4711 20.6585C58.0978 21.2641 57.9112 22.2605 57.9112 23.6478V29.2038H54.6896V17.3946H57.1507L57.5838 18.9051H57.7634C58.0803 18.3629 58.5379 17.9404 59.1365 17.6376C59.735 17.3277 60.4216 17.1729 61.1963 17.1729C62.9637 17.1729 64.1608 17.7503 64.7876 18.9051H65.0727C65.3896 18.3559 65.8544 17.9298 66.467 17.627C67.0867 17.3242 67.7838 17.1729 68.5585 17.1729C69.8964 17.1729 70.9069 17.5179 71.59 18.2079C72.2801 18.891 72.6251 19.9896 72.6251 21.5036V29.2038H69.3929V22.3064C69.3929 21.4542 69.2486 20.8169 68.9599 20.3945C68.6781 19.9649 68.231 19.7501 67.6184 19.7501C66.8297 19.7501 66.2382 20.0318 65.8439 20.5952C65.4565 21.1585 65.2629 22.0528 65.2629 23.2781V29.2038Z" fill="#DBDBDB"/>
<path d="M83.4411 29.204L82.8183 27.5984H82.7336C82.1913 28.2815 81.632 28.7568 81.0541 29.0244C80.4838 29.2849 79.7373 29.4152 78.8149 29.4152C77.6812 29.4152 76.7869 29.0913 76.1319 28.4434C75.4841 27.7956 75.1602 26.8731 75.1602 25.676C75.1602 24.4225 75.5968 23.5001 76.47 22.9085C77.3502 22.31 78.674 21.9791 80.4415 21.9156L82.491 21.8523V21.3347C82.491 20.1376 81.8779 19.5391 80.6528 19.5391C79.7092 19.5391 78.6001 19.8242 77.3255 20.3946L76.2587 18.2187C77.6178 17.5075 79.1247 17.1519 80.7795 17.1519C82.3639 17.1519 83.5787 17.4969 84.4239 18.187C85.269 18.8771 85.6916 19.9264 85.6916 21.3347V29.204H83.4411ZM82.491 23.7324L81.2443 23.7747C80.3078 23.8029 79.6106 23.9719 79.1529 24.2817C78.6952 24.5916 78.4663 25.0634 78.4663 25.6972C78.4663 26.6056 78.9874 27.0597 80.0296 27.0597C80.776 27.0597 81.371 26.8449 81.8144 26.4154C82.2654 25.9859 82.491 25.4154 82.491 24.7042V23.7324Z" fill="#DBDBDB"/>
<path d="M99.9196 29.2038H96.6979V22.3064C96.6979 21.4542 96.5464 20.8169 96.2435 20.3945C95.9407 19.9649 95.4578 19.7501 94.7967 19.7501C93.8946 19.7501 93.2432 20.0529 92.8418 20.6585C92.4404 21.2571 92.2401 22.2535 92.2401 23.6478V29.2038H89.0184V17.3946H91.4797L91.9128 18.9051H92.092C92.451 18.3347 92.9444 17.9051 93.5714 17.6164C94.2048 17.3207 94.9229 17.1729 95.7257 17.1729C97.0993 17.1729 98.1414 17.5461 98.8522 18.2925C99.5638 19.0319 99.9196 20.1022 99.9196 21.5036V29.2038Z" fill="#DBDBDB"/>
<path d="M108.211 26.8484C108.774 26.8484 109.451 26.7252 110.239 26.4787V28.8765C109.436 29.2356 108.451 29.4151 107.282 29.4151C105.993 29.4151 105.053 29.0912 104.461 28.4434C103.877 27.7885 103.584 26.8097 103.584 25.5069V19.8137H102.042V18.451L103.817 17.3737L104.746 14.8809H106.806V17.3948H110.113V19.8137H106.806V25.5069C106.806 25.9647 106.933 26.3027 107.186 26.521C107.447 26.7393 107.789 26.8484 108.211 26.8484Z" fill="#DBDBDB"/>
<path d="M123.538 29.2037H120.316V22.3063C120.316 20.6021 119.682 19.75 118.415 19.75C117.514 19.75 116.862 20.0564 116.461 20.669C116.059 21.2817 115.858 22.2745 115.858 23.6477V29.2037H112.637V12.7681H115.858V16.1164C115.858 16.377 115.834 16.9897 115.784 17.9544L115.711 18.9051H115.879C116.598 17.7502 117.738 17.1728 119.302 17.1728C120.689 17.1728 121.742 17.546 122.46 18.2924C123.179 19.0388 123.538 20.1092 123.538 21.5035V29.2037Z" fill="#DBDBDB"/>
<path d="M135.22 29.2042L134.787 27.6937H134.618C134.273 28.2429 133.784 28.669 133.149 28.9718C132.516 29.2675 131.794 29.4154 130.984 29.4154C129.597 29.4154 128.552 29.0457 127.847 28.3063C127.143 27.5599 126.79 26.4896 126.79 25.0953V17.395H130.012V24.2925C130.012 25.1445 130.164 25.7854 130.467 26.2149C130.769 26.6374 131.251 26.8486 131.913 26.8486C132.815 26.8486 133.466 26.5494 133.867 25.9508C134.269 25.3452 134.47 24.3453 134.47 22.951V17.395H137.692V29.2042H135.22Z" fill="#DBDBDB"/>
<path d="M144.293 29.2037H141.071V12.7681H144.293V29.2037Z" fill="#DBDBDB"/>
<path d="M0 20.5508C2.35954e-07 17.8521 0.531564 15.1798 1.56434 12.6864C2.59711 10.1931 4.11088 7.92754 6.01921 6.01921C7.92753 4.11088 10.193 2.59712 12.6864 1.56434C15.1797 0.531563 17.8521 -2.35929e-07 20.5508 0C23.2496 2.35938e-07 25.922 0.531564 28.4153 1.56434C30.9087 2.59712 33.1742 4.11088 35.0825 6.01921C36.9908 7.92754 38.5046 10.1931 39.5374 12.6864C40.5702 15.1798 41.1017 17.8521 41.1017 20.5508H30.8263C30.8263 19.2015 30.5605 17.8653 30.0441 16.6186C29.5277 15.3719 28.7709 14.2392 27.8167 13.2851C26.8626 12.3309 25.7298 11.574 24.4831 11.0576C23.2365 10.5412 21.9003 10.2755 20.5508 10.2755C19.2015 10.2755 17.8653 10.5412 16.6186 11.0576C15.372 11.574 14.2392 12.3309 13.285 13.2851C12.3309 14.2392 11.574 15.3719 11.0576 16.6186C10.5412 17.8653 10.2754 19.2015 10.2754 20.5508H0Z" fill="#DBDBDB"/>
<path fill-rule="evenodd" clip-rule="evenodd" d="M13.5142 37.539C11.9526 36.8922 10.4909 36.0344 9.16879 34.9924L13.4191 30.7421C14.1583 31.2594 14.9532 31.696 15.7908 32.0429C17.2999 32.6679 18.9174 32.9897 20.5508 32.9897C22.1844 32.9897 23.8018 32.6679 25.3109 32.0429C26.1484 31.696 26.9435 31.2594 27.6826 30.7421L31.933 34.9924C30.6108 36.0344 29.1491 36.8922 27.5875 37.539C25.3566 38.4631 22.9656 38.9386 20.5508 38.9386C18.1362 38.9386 15.7451 38.4631 13.5142 37.539ZM33.4721 36.5316C34.0329 36.0781 34.5706 35.5946 35.0825 35.0827L27.8167 27.8169C26.8626 28.771 25.7298 29.5279 24.4831 30.0443C23.2365 30.5606 21.9003 30.8265 20.5508 30.8265C19.2015 30.8265 17.8653 30.5606 16.6186 30.0443C15.372 29.5279 14.2392 28.771 13.285 27.8169L6.0192 35.0827C6.53112 35.5946 7.06875 36.0781 7.62958 36.5316C9.15943 37.7686 10.8619 38.7818 12.6864 39.5376C15.1798 40.5704 17.8521 41.1019 20.5508 41.1019C23.2496 41.1019 25.922 40.5704 28.4153 39.5376C30.2398 38.7818 31.9423 37.7686 33.4721 36.5316Z" fill="#DBDBDB"/>
</svg>
