<svg width="141" height="43" viewBox="0 0 141 43" fill="none" xmlns="http://www.w3.org/2000/svg">
<path d="M29.0329 24.2223C29.0329 27.0743 29.0836 28.9058 29.185 29.717H24.2226V9.84849H29.0329V11.5597C30.7694 10.1654 32.5502 9.46826 34.3755 9.46826C36.5303 9.46826 38.0957 10.3999 39.0717 12.2631C40.0477 11.2619 40.8589 10.6027 41.5053 10.2858C42.5827 9.74077 43.6602 9.46826 44.7375 9.46826C45.8276 9.46826 46.7529 9.65203 47.5134 10.0196C48.274 10.3872 48.9014 10.9069 49.3957 11.5787C50.3971 12.9349 50.8977 14.7982 50.8977 17.1685V24.7356C50.8977 26.8778 50.9295 28.1643 50.9928 28.5953C51.0562 29.0262 51.1385 29.3051 51.24 29.4318C51.3541 29.5586 51.4491 29.6727 51.5251 29.774L51.4871 29.8501C50.4731 29.7614 49.7253 29.717 49.2436 29.717H47.8176C47.3486 29.717 46.7719 29.736 46.0874 29.774V19.4881C46.0874 16.522 45.6312 14.7602 44.7185 14.2025C44.4144 14.0251 44.0531 13.9363 43.6348 13.9363C43.2292 13.9363 42.868 13.987 42.5511 14.0884C42.2342 14.1772 41.9363 14.3292 41.6575 14.5447C41.1884 14.887 40.6561 15.5588 40.0604 16.5601C40.0731 16.6615 40.0794 16.7629 40.0794 16.8643C40.0794 16.9657 40.0794 18.6389 40.0794 21.8837C40.0794 25.1286 40.1555 27.7397 40.3076 29.717C39.2301 29.717 38.3112 29.717 37.5507 29.717C36.8029 29.717 36.0867 29.736 35.4022 29.774V19.4691C35.4022 17.403 35.2754 16.0594 35.022 15.4383C34.7811 14.8172 34.5212 14.4116 34.2424 14.2215C33.9636 14.0313 33.6213 13.9363 33.2158 13.9363C31.5426 13.9363 30.1483 14.7412 29.0329 16.351V24.2223Z" fill="#DBDBDB"/>
<path d="M69.5304 28.5383C67.7305 29.5142 66.1017 30.0023 64.6441 30.0023C63.1864 30.0023 61.9379 29.8691 60.8985 29.603C59.8591 29.3241 58.9782 28.9185 58.2557 28.3862C56.7854 27.3087 56.0502 25.7496 56.0502 23.7089C56.0502 21.8837 56.9502 20.3627 58.75 19.1459C60.702 17.8276 63.3512 17.1685 66.6975 17.1685L67.458 17.1875C67.6101 17.2002 67.7812 17.2129 67.9714 17.2255C68.1615 17.2255 68.3325 17.2382 68.4847 17.2635C68.3832 15.2355 67.5086 14.0504 65.8609 13.7082C65.3159 13.594 64.7328 13.537 64.1117 13.537C63.5033 13.537 62.9012 13.594 62.3054 13.7082C61.7224 13.8096 61.152 13.9489 60.5943 14.1264C59.3648 14.5194 58.4839 14.9694 57.9515 15.4764L57.8945 15.4383L57.324 11.2364C59.5676 10.0577 62.0202 9.46826 64.6821 9.46826C68.8142 9.46826 71.457 10.9576 72.6105 13.9363C72.9781 14.887 73.1618 15.958 73.1618 17.1495V24.0322C73.1618 25.5025 73.6815 26.5038 74.7209 27.0362L71.2796 30.1924C70.5571 29.8121 69.974 29.2607 69.5304 28.5383ZM68.5037 20.6859C68.1615 20.6225 67.8066 20.5908 67.4389 20.5908H66.6784C63.8772 20.5908 62.0964 21.2119 61.3358 22.4541C61.1077 22.8217 60.9935 23.2083 60.9935 23.6138C60.9935 24.0195 61.0633 24.3807 61.2027 24.6976C61.3548 25.0018 61.602 25.2553 61.9442 25.4582C62.6034 25.8384 63.5793 26.0285 64.8722 26.0285C66.1778 26.0285 67.3946 25.718 68.5227 25.0969C68.51 24.9574 68.5037 24.8117 68.5037 24.6596V20.6859Z" fill="#DBDBDB"/>
<path d="M78.1242 4.31589C78.9481 2.99766 79.8924 1.75548 80.9571 0.589355L84.5884 3.46031C83.955 4.27152 83.5243 4.82924 83.2955 5.13345L82.6303 6.06508C82.4145 6.35661 82.1866 6.68616 81.9455 7.05375L78.1242 4.31589ZM76.0138 32.6642C77.8897 32.6642 78.8277 31.2698 78.8277 28.4813V9.84862H83.4477V27.1124C83.4477 32.436 81.9333 35.5858 78.9037 36.5618C77.9151 36.8787 76.7933 37.0371 75.5385 37.0371L73.5611 32.0367L73.5991 31.9416C74.3217 32.4233 75.1265 32.6642 76.0138 32.6642Z" fill="#DBDBDB"/>
<path d="M88.2767 4.18285C89.2912 2.59843 90.3497 1.20415 91.4521 0L95.5402 3.21319C94.9947 3.88497 94.4882 4.54409 94.0193 5.19053C94.0193 5.19053 93.5307 5.88133 92.5553 7.26294L88.2767 4.18285ZM93.2775 27.5878C93.2775 28.6778 93.3028 29.3876 93.3532 29.7172H88.5242V9.84867H93.2775V27.5878Z" fill="#DBDBDB"/>
<path d="M103.659 27.2833C103.659 28.3988 103.709 29.2101 103.811 29.717H99.0388V9.84849H103.659V11.5406C105.332 10.1591 107.119 9.46826 109.02 9.46826C111.099 9.46826 112.76 10.1781 114.001 11.5977C115.244 13.0046 115.865 14.8616 115.865 17.1685V24.7356C115.865 26.8778 115.897 28.1643 115.96 28.5953C116.024 29.0262 116.106 29.3051 116.207 29.4318C116.321 29.5586 116.416 29.6727 116.493 29.774L116.454 29.8501C115.428 29.7614 114.679 29.717 114.21 29.717H112.88C112.475 29.717 111.929 29.736 111.244 29.774V19.412C111.244 15.6982 110.117 13.8412 107.861 13.8412C106.187 13.8412 104.787 14.7031 103.659 16.427V27.2833Z" fill="#DBDBDB"/>
<path d="M120.485 19.9443C120.485 18.4614 120.739 17.0861 121.246 15.8186C121.752 14.551 122.469 13.4419 123.394 12.4913C125.371 10.4759 127.957 9.46826 131.151 9.46826C133.851 9.46826 136.019 10.3618 137.654 12.1491C139.263 13.8729 140.069 16.0404 140.069 18.6515C140.069 19.6529 139.992 20.3374 139.841 20.7049C138.573 21.0598 135.993 21.2373 132.102 21.2373H125.41C125.739 22.5935 126.506 23.6519 127.71 24.4124C128.914 25.1602 130.48 25.5342 132.406 25.5342C134.421 25.5342 136.151 25.1729 137.597 24.4504C137.977 24.2603 138.262 24.0829 138.452 23.9181C138.427 24.4504 138.395 24.9955 138.357 25.5532L138.148 28.5192C137.185 29.1783 135.625 29.6347 133.471 29.8881C132.837 29.9642 132.229 30.0023 131.646 30.0023C128.426 30.0023 125.764 29.0642 123.66 27.1883C121.543 25.2997 120.485 22.8851 120.485 19.9443ZM135.011 17.5487C134.491 14.8235 133.009 13.461 130.562 13.461C128.636 13.461 127.172 14.2912 126.17 15.9517C125.866 16.4587 125.631 17.0164 125.467 17.6248C125.77 17.6375 126.145 17.6502 126.588 17.6628H127.995C128.464 17.6755 128.914 17.6819 129.345 17.6819H130.428C131.075 17.6819 131.709 17.6755 132.33 17.6628L133.889 17.6058C134.307 17.5931 134.681 17.5741 135.011 17.5487Z" fill="#DBDBDB"/>
<path d="M5.19053 10.345C6.99042 9.36898 8.61922 8.88103 10.0769 8.88103C11.5345 8.88103 12.783 9.01407 13.8224 9.28031C14.8618 9.55918 15.7427 9.96473 16.4652 10.4971C17.9356 11.5746 18.6707 13.1336 18.6707 15.1743C18.6707 16.9995 17.7708 18.5205 15.9708 19.7374C14.0189 21.0556 11.3697 21.7147 8.02345 21.7147L7.26294 21.6957C7.11084 21.683 6.93972 21.6704 6.74959 21.6577C6.55946 21.6577 6.38835 21.645 6.23624 21.6197C6.33765 23.6477 7.21224 24.8328 8.86005 25.1751C9.40508 25.2892 9.98812 25.3462 10.6092 25.3462C11.2176 25.3462 11.8197 25.2892 12.4155 25.1751C12.9985 25.0737 13.5689 24.9343 14.1266 24.7568C15.3561 24.3638 16.2371 23.9139 16.7694 23.4069L16.8265 23.4449L17.3968 27.6468C15.1533 28.8256 12.7006 29.415 10.0388 29.415C5.90668 29.415 3.26389 27.9256 2.11043 24.947C1.74285 23.9963 1.55906 22.9252 1.55906 21.7338V14.851C1.55906 13.3808 1.03938 12.3794 0 11.8471L3.44134 8.69092C4.16383 9.07115 4.7469 9.62252 5.19053 10.345ZM6.21723 18.1974C6.55946 18.2607 6.91437 18.2924 7.28195 18.2924H8.04247C10.8437 18.2924 12.6246 17.6713 13.3851 16.4291C13.6132 16.0616 13.7273 15.675 13.7273 15.2694C13.7273 14.8637 13.6576 14.5025 13.5182 14.1856C13.3661 13.8814 13.1189 13.6279 12.7767 13.4251C12.1176 13.0448 11.1416 12.8547 9.84873 12.8547C8.54317 12.8547 7.32631 13.1652 6.19821 13.7863C6.21089 13.9258 6.21723 14.0715 6.21723 14.2236V18.1974Z" fill="#DBDBDB"/>
<path d="M5.83029 40.4022C4.98549 39.5574 4.98549 38.1876 5.83029 37.3428L7.67673 35.4964C8.52153 34.6516 9.89117 34.6516 10.736 35.4964L12.5824 37.3428C13.4272 38.1876 13.4272 39.5574 12.5824 40.4022L10.736 42.2486C9.89117 43.0934 8.52153 43.0934 7.67673 42.2486L5.83029 40.4022Z" fill="#DBDBDB"/>
</svg>
