<svg width="140" height="43" viewBox="0 0 140 43" fill="none" xmlns="http://www.w3.org/2000/svg">
<path d="M29.0187 24.2223C29.0187 27.0743 29.0693 28.9058 29.1707 29.717H24.2107V9.84849H29.0187V11.5597C30.7544 10.1654 32.5343 9.46826 34.3587 9.46826C36.5124 9.46826 38.0771 10.3999 39.0526 12.2631C40.0281 11.2619 40.839 10.6027 41.485 10.2858C42.5619 9.74077 43.6388 9.46826 44.7156 9.46826C45.8052 9.46826 46.73 9.65203 47.4902 10.0196C48.2504 10.3872 48.8775 10.9069 49.3715 11.5787C50.3724 12.9349 50.8728 14.7982 50.8728 17.1685V24.7356C50.8728 26.8778 50.9046 28.1643 50.9679 28.5953C51.0312 29.0262 51.1135 29.3051 51.2149 29.4318C51.329 29.5586 51.4239 29.6727 51.4999 29.774L51.4619 29.8501C50.4484 29.7614 49.701 29.717 49.2195 29.717H47.7942C47.3255 29.717 46.7491 29.736 46.0649 29.774V19.4881C46.0649 16.522 45.6089 14.7602 44.6967 14.2025C44.3926 14.0251 44.0316 13.9363 43.6134 13.9363C43.2081 13.9363 42.847 13.987 42.5303 14.0884C42.2135 14.1772 41.9158 14.3292 41.6371 14.5447C41.1683 14.887 40.6362 15.5588 40.0408 16.5601C40.0535 16.6615 40.0598 16.7629 40.0598 16.8643C40.0598 16.9657 40.0598 18.6389 40.0598 21.8837C40.0598 25.1286 40.1358 27.7397 40.2879 29.717C39.211 29.717 38.2924 29.717 37.5323 29.717C36.7849 29.717 36.069 29.736 35.3849 29.774V19.4691C35.3849 17.403 35.2582 16.0594 35.0048 15.4383C34.7641 14.8172 34.5044 14.4116 34.2256 14.2215C33.947 14.0313 33.6049 13.9363 33.1995 13.9363C31.5272 13.9363 30.1335 14.7412 29.0187 16.351V24.2223Z" fill="#613FE5"/>
<path d="M69.4964 28.5383C67.6974 29.5142 66.0694 30.0023 64.6125 30.0023C63.1555 30.0023 61.9076 29.8691 60.8687 29.603C59.8298 29.3241 58.9494 28.9185 58.2272 28.3862C56.7576 27.3087 56.0228 25.7496 56.0228 23.7089C56.0228 21.8837 56.9223 20.3627 58.7213 19.1459C60.6724 17.8276 63.3202 17.1685 66.6648 17.1685L67.425 17.1875C67.577 17.2002 67.748 17.2129 67.9381 17.2255C68.1281 17.2255 68.2991 17.2382 68.4512 17.2635C68.3498 15.2355 67.4756 14.0504 65.8287 13.7082C65.2839 13.594 64.7012 13.537 64.0803 13.537C63.4722 13.537 62.8704 13.594 62.275 13.7082C61.6922 13.8096 61.1221 13.9489 60.5647 14.1264C59.3358 14.5194 58.4553 14.9694 57.9232 15.4764L57.8662 15.4383L57.296 11.2364C59.5385 10.0577 61.9899 9.46826 64.6505 9.46826C68.7806 9.46826 71.4221 10.9576 72.575 13.9363C72.9424 14.887 73.1261 15.958 73.1261 17.1495V24.0322C73.1261 25.5025 73.6455 26.5038 74.6844 27.0362L71.2447 30.1924C70.5226 29.8121 69.9398 29.2607 69.4964 28.5383ZM68.4702 20.6859C68.1281 20.6225 67.7734 20.5908 67.406 20.5908H66.6458C63.8459 20.5908 62.066 21.2119 61.3058 22.4541C61.0778 22.8217 60.9637 23.2083 60.9637 23.6138C60.9637 24.0195 61.0335 24.3807 61.1728 24.6976C61.3248 25.0018 61.5719 25.2553 61.9139 25.4582C62.5728 25.8384 63.5482 26.0285 64.8405 26.0285C66.1454 26.0285 67.3616 25.718 68.4892 25.0969C68.4765 24.9574 68.4702 24.8117 68.4702 24.6596V20.6859Z" fill="#613FE5"/>
<path d="M78.086 4.31589C78.9095 2.99766 79.8533 1.75548 80.9175 0.589355L84.547 3.46031C83.9139 4.27152 83.4834 4.82924 83.2547 5.13345L82.5899 6.06508C82.3742 6.35661 82.1464 6.68616 81.9055 7.05375L78.086 4.31589ZM75.9766 32.6642C77.8516 32.6642 78.7891 31.2698 78.7891 28.4813V9.84862H83.4069V27.1124C83.4069 32.436 81.8933 35.5858 78.8651 36.5618C77.877 36.8787 76.7558 37.0371 75.5015 37.0371L73.5251 32.0367L73.5632 31.9416C74.2853 32.4233 75.0898 32.6642 75.9766 32.6642Z" fill="#613FE5"/>
<path d="M88.2336 4.18285C89.2475 2.59843 90.3055 1.20415 91.4074 0L95.4934 3.21319C94.9482 3.88497 94.442 4.54409 93.9733 5.19053C93.9733 5.19053 93.485 5.88133 92.5101 7.26294L88.2336 4.18285ZM93.2319 27.5878C93.2319 28.6778 93.2571 29.3876 93.3076 29.7172H88.4809V9.84867H93.2319V27.5878Z" fill="#613FE5"/>
<path d="M103.608 27.2833C103.608 28.3988 103.658 29.2101 103.76 29.717H98.9903V9.84849H103.608V11.5406C105.28 10.1591 107.066 9.46826 108.967 9.46826C111.044 9.46826 112.704 10.1781 113.945 11.5977C115.187 13.0046 115.808 14.8616 115.808 17.1685V24.7356C115.808 26.8778 115.84 28.1643 115.903 28.5953C115.967 29.0262 116.049 29.3051 116.15 29.4318C116.264 29.5586 116.359 29.6727 116.436 29.774L116.397 29.8501C115.371 29.7614 114.623 29.717 114.155 29.717H112.825C112.42 29.717 111.874 29.736 111.19 29.774V19.412C111.19 15.6982 110.063 13.8412 107.808 13.8412C106.135 13.8412 104.736 14.7031 103.608 16.427V27.2833Z" fill="#613FE5"/>
<path d="M120.426 19.9443C120.426 18.4614 120.68 17.0861 121.187 15.8186C121.693 14.551 122.409 13.4419 123.333 12.4913C125.31 10.4759 127.895 9.46826 131.087 9.46826C133.786 9.46826 135.952 10.3618 137.586 12.1491C139.195 13.8729 140 16.0404 140 18.6515C140 19.6529 139.924 20.3374 139.772 20.7049C138.505 21.0598 135.927 21.2373 132.037 21.2373H125.348C125.677 22.5935 126.444 23.6519 127.647 24.4124C128.851 25.1602 130.416 25.5342 132.341 25.5342C134.355 25.5342 136.085 25.1729 137.529 24.4504C137.909 24.2603 138.194 24.0829 138.385 23.9181C138.359 24.4504 138.328 24.9955 138.289 25.5532L138.08 28.5192C137.118 29.1783 135.559 29.6347 133.406 29.8881C132.772 29.9642 132.164 30.0023 131.581 30.0023C128.364 30.0023 125.702 29.0642 123.6 27.1883C121.484 25.2997 120.426 22.8851 120.426 19.9443ZM134.945 17.5487C134.425 14.8235 132.944 13.461 130.498 13.461C128.573 13.461 127.109 14.2912 126.108 15.9517C125.804 16.4587 125.57 17.0164 125.405 17.6248C125.709 17.6375 126.083 17.6502 126.526 17.6628H127.932C128.401 17.6755 128.851 17.6819 129.281 17.6819H130.365C131.011 17.6819 131.645 17.6755 132.266 17.6628L133.823 17.6058C134.242 17.5931 134.615 17.5741 134.945 17.5487Z" fill="#613FE5"/>
<path d="M5.18799 10.345C6.987 9.36898 8.615 8.88103 10.0719 8.88103C11.5289 8.88103 12.7768 9.01407 13.8156 9.28031C14.8545 9.55918 15.735 9.96473 16.4572 10.4971C17.9268 11.5746 18.6616 13.1336 18.6616 15.1743C18.6616 16.9995 17.7621 18.5205 15.963 19.7374C14.012 21.0556 11.3642 21.7147 8.01953 21.7147L7.25939 21.6957C7.10736 21.683 6.93632 21.6704 6.74629 21.6577C6.55625 21.6577 6.38522 21.645 6.23319 21.6197C6.33455 23.6477 7.20871 24.8328 8.85572 25.1751C9.40048 25.2892 9.98324 25.3462 10.604 25.3462C11.2122 25.3462 11.814 25.2892 12.4094 25.1751C12.9922 25.0737 13.5622 24.9343 14.1197 24.7568C15.3486 24.3638 16.2291 23.9139 16.7612 23.4069L16.8182 23.4449L17.3883 27.6468C15.1459 28.8256 12.6944 29.415 10.0339 29.415C5.9038 29.415 3.26229 27.9256 2.1094 24.947C1.742 23.9963 1.5583 22.9252 1.5583 21.7338V14.851C1.5583 13.3808 1.03887 12.3794 0 11.8471L3.43966 8.69092C4.1618 9.07115 4.74457 9.62252 5.18799 10.345ZM6.21419 18.1974C6.55625 18.2607 6.91099 18.2924 7.27839 18.2924H8.03854C10.8384 18.2924 12.6184 17.6713 13.3786 16.4291C13.6066 16.0616 13.7206 15.675 13.7206 15.2694C13.7206 14.8637 13.6509 14.5025 13.5116 14.1856C13.3595 13.8814 13.1125 13.6279 12.7704 13.4251C12.1116 13.0448 11.1361 12.8547 9.84391 12.8547C8.53899 12.8547 7.32273 13.1652 6.19518 13.7863C6.20785 13.9258 6.21419 14.0715 6.21419 14.2236V18.1974Z" fill="#613FE5"/>
<path d="M5.82744 40.4022C4.98306 39.5574 4.98306 38.1876 5.82744 37.3428L7.67298 35.4964C8.51737 34.6516 9.88634 34.6516 10.7307 35.4964L12.5763 37.3428C13.4207 38.1876 13.4207 39.5574 12.5763 40.4022L10.7307 42.2486C9.88634 43.0934 8.51737 43.0934 7.67298 42.2486L5.82744 40.4022Z" fill="#613FE5"/>
</svg>
